<?xml version="1.0" encoding="UTF-8" standalone="no"?>
<!-- Created with Inkscape (http://www.inkscape.org/) -->

<svg
   width="46.051075mm"
   height="46.051075mm"
   viewBox="0 0 46.051075 46.051075"
   version="1.1"
   id="svg536"
   inkscape:version="1.2.2 (732a01da63, 2022-12-09)"
   sodipodi:docname="aardwolf-social-square_icon-light.svg"
   xmlns:inkscape="http://www.inkscape.org/namespaces/inkscape"
   xmlns:sodipodi="http://sodipodi.sourceforge.net/DTD/sodipodi-0.dtd"
   xmlns="http://www.w3.org/2000/svg"
   xmlns:svg="http://www.w3.org/2000/svg">
  <sodipodi:namedview
     id="namedview538"
     pagecolor="#505050"
     bordercolor="#eeeeee"
     borderopacity="1"
     inkscape:showpageshadow="0"
     inkscape:pageopacity="0"
     inkscape:pagecheckerboard="0"
     inkscape:deskcolor="#505050"
     inkscape:document-units="mm"
     showgrid="false"
     inkscape:zoom="1.6819304"
     inkscape:cx="187.58208"
     inkscape:cy="88.588683"
     inkscape:window-width="1680"
     inkscape:window-height="987"
     inkscape:window-x="1672"
     inkscape:window-y="-8"
     inkscape:window-maximized="1"
     inkscape:current-layer="layer1" />
  <defs
     id="defs533" />
  <g
     inkscape:label="Layer 1"
     inkscape:groupmode="layer"
     id="layer1"
     transform="translate(-54.999886,-57.516836)">
    <g
       id="g601"
       transform="translate(-49.632415,-34.537806)">
      <rect
         style="fill:#c6b3a5;fill-opacity:1;fill-rule:evenodd;stroke-width:1.3;stroke-linecap:round;stroke-linejoin:round"
         id="rect2624-9-9-9-6"
         width="46.051075"
         height="46.051075"
         x="104.6323"
         y="92.054642"
         ry="5.6799083" />
      <g
         id="g108628"
         transform="translate(-50.579537,67.106499)"
         inkscape:export-filename="Aardwolf_Social\Square_Icon.png"
         inkscape:export-xdpi="96"
         inkscape:export-ydpi="96">
        <g
           id="g44761-1-4"
           transform="translate(107.69822,-0.18048468)">
          <path
             id="path28663-8-3-4-0"
             style="fill:#eeebe2;fill-rule:evenodd;stroke:#401906;stroke-width:0.861;stroke-linecap:round;stroke-linejoin:round;stroke-dasharray:none"
             d="m 72.126401,28.385357 c -5.77078,1.6e-4 -10.44886,4.06305 -10.44897,9.0749 0.002,3.6934 2.58074,7.0174 6.52156,8.40569 -0.0497,-0.0166 2.87741,0.67062 2.82767,0.65352 1.20613,1.72692 0.1219,4.01864 0.81693,5.384933 0.52841,-2.181663 1.93043,-2.354233 2.2491,-5.144443 0,0 2.19832,-0.6788 2.18126,-0.67283 3.922,-1.39715 6.30155,-4.94525 6.30195,-8.62686 -1.1e-4,-5.01202 -4.67851,-9.07499 -10.4495,-9.0749 z"
             sodipodi:nodetypes="cccccccccc" />
          <path
             style="fill:none;stroke:#401906;stroke-width:0.861;stroke-linecap:round;stroke-linejoin:round;stroke-dasharray:none;stroke-opacity:1"
             d="m 68.466511,45.92635 2.56015,0.593116"
             id="path39530-3-3" />
          <path
             style="fill:none;stroke:#401906;stroke-width:0.861;stroke-linecap:round;stroke-linejoin:round;stroke-dasharray:none;stroke-opacity:1"
             d="m 74.326571,46.687744 c 1.63084,-0.389664 2.69843,-0.885902 3.66324,-1.40159"
             id="path40984-3-2"
             sodipodi:nodetypes="cc" />
        </g>
        <g
           id="g108249"
           transform="translate(0,-0.43050237)">
          <g
             id="g97735"
             transform="translate(25.209732,-54.395343)">
            <path
               id="path68741-3"
               style="fill:#eeebe2;fill-opacity:1;stroke:#401906;stroke-width:0.861;stroke-linecap:round;stroke-linejoin:round;stroke-dasharray:none;stroke-opacity:1"
               d="m 141.0286,125.39455 h 23.61225 m -23.61225,0 c 8.04795,-10.2406 18.87862,-9.19973 23.61225,0" />
            <path
               style="fill:#eeebe2;fill-opacity:1;stroke:#401906;stroke-width:0.861;stroke-linecap:round;stroke-linejoin:round;stroke-dasharray:none;stroke-opacity:1"
               d="m 149.74702,108.78918 c -0.20101,-0.61511 -2.09152,-2.69979 -2.48729,-2.55297 -0.36369,0.13492 0.17901,1.07452 -0.43714,2.05725 -0.20631,0.32906 -0.69747,0.58174 -0.96258,1.07237 -1.89412,3.50525 -8.25162,10.89968 -3.38928,14.34359 -0.39578,0.44756 -0.7758,0.86713 -1.44212,1.68513 -7.582,-2.39513 -1.43769,-16.88661 4.91664,-24.30997 0.80066,0.0263 2.28857,-0.47346 0.70861,1.37505 3.12721,4.26241 4.38547,10.06606 4.86581,15.84884"
               id="path92155"
               sodipodi:nodetypes="csscccccc" />
            <g
               id="g96586"
               transform="translate(-5.2916667)">
              <path
                 style="fill:none;fill-opacity:1;stroke:#401906;stroke-width:0.861;stroke-linecap:round;stroke-linejoin:round;stroke-dasharray:none;stroke-opacity:1"
                 d="m 161.93496,118.48196 c -0.23019,-4.44282 0.90691,-4.89635 4.1228,-9.61298"
                 id="path71850-6-2"
                 sodipodi:nodetypes="cc" />
              <path
                 style="fill:#eeebe2;fill-opacity:1;stroke:#401906;stroke-width:0.861;stroke-linecap:round;stroke-linejoin:round;stroke-dasharray:none;stroke-opacity:1"
                 d="m 166.05776,108.86898 c 0.81698,-1.129 1.5994,-2.22399 2.28588,-3.22457 -1.91684,-0.0969 -2.02757,-0.9983 -0.61557,-1.40238 0.34394,-0.0984 0.74844,-0.26029 1.23712,-0.39609 6.42936,6.24096 6.20263,19.53959 0.96733,21.54861 -0.29698,-0.55236 -0.54429,-1.06136 -1.10704,-1.84909 1.00195,-3.03488 2.16104,-3.21172 1.57355,-6.45303 -0.20481,-1.12996 -0.73185,-2.50262 -1.10807,-4.43159 -0.1754,-0.89931 -0.36317,-1.82913 -0.49629,-2.97684 -0.0871,-0.7514 -0.10589,-1.78151 -0.26813,-2.63154 -0.80477,0.14192 -2.13309,1.44391 -2.46878,1.81652"
                 id="path84508"
                 sodipodi:nodetypes="ccscccssccc" />
            </g>
          </g>
          <g
             id="g108238">
            <path
               style="color:#000000;fill:#401906;fill-opacity:1;fill-rule:evenodd;stroke:none;stroke-width:0.0415421;stroke-linecap:round;stroke-linejoin:round;-inkscape-stroke:none"
               d="m 173.90157,68.376014 c -0.0583,2.9e-4 -0.11401,0.001 -0.16657,0.003 -0.0526,0.002 -0.10194,0.004 -0.1475,0.007 a 0.02077313,0.02077313 0 0 1 -0.002,9e-5 c 0,-1e-5 -0.002,0 -0.003,0 0.003,0 -6.3e-4,2e-4 -0.003,3.3e-4 l -0.001,8e-5 c -0.0537,0.003 -0.10711,0.007 -0.15998,0.0119 -0.0529,0.005 -0.1052,0.01 -0.15677,0.0159 -0.003,4.2e-4 -0.006,6.5e-4 -0.008,9e-4 a 0.02077313,0.02077313 0 0 1 -6.6e-4,9e-5 c -0.0518,0.006 -0.10271,0.0128 -0.15268,0.0201 -0.05,0.007 -0.099,0.0152 -0.1468,0.0237 -0.003,4.2e-4 -0.005,8.1e-4 -0.007,0.001 -0.0478,0.009 -0.0944,0.0176 -0.13956,0.0272 -0.0452,0.01 -0.0889,0.0196 -0.13095,0.0302 -0.002,4.7e-4 -0.004,9.3e-4 -0.006,10e-4 -0.0421,0.0106 -0.0826,0.0217 -0.12108,0.0332 -0.0385,0.0115 -0.0751,0.0234 -0.10968,0.0356 a 0.02077313,0.02077313 0 0 0 0,2e-5 0.02077313,0.02077313 0 0 0 0,2e-5 0.02077313,0.02077313 0 0 0 0,3e-5 0.02077313,0.02077313 0 0 0 0,2e-5 c -6.2e-4,2.5e-4 -0.002,3.7e-4 -0.002,5.8e-4 0,0 2e-5,4e-5 0,8e-5 -4.1e-4,4e-5 -4.1e-4,8e-5 -4.1e-4,8e-5 -5.4e-4,2.5e-4 -10e-4,5.7e-4 -0.002,7.4e-4 -0.0454,0.0164 -0.0977,0.0386 -0.15472,0.0656 v 8e-5 c -0.001,5.7e-4 -0.003,10e-4 -0.005,0.002 l -4.1e-4,1.7e-4 c -0.0574,0.0272 -0.11953,0.0591 -0.18475,0.0945 a 0.02077313,0.02077313 0 0 1 -4.2e-4,1.7e-4 c -8.3e-4,4.2e-4 -0.002,10e-4 -0.004,0.002 v 9e-5 c -0.0653,0.0356 -0.13356,0.0747 -0.20311,0.1162 -0.0724,0.0432 -0.14619,0.0889 -0.21931,0.13597 -0.0731,0.0471 -0.14564,0.0956 -0.21566,0.14412 -0.0677,0.0469 -0.13299,0.0938 -0.19415,0.13971 l -4.2e-4,2.4e-4 c -0.001,10e-4 -0.002,0.002 -0.003,0.002 a 0.02077313,0.02077313 0 0 1 -4.1e-4,1.7e-4 c -0.0614,0.0461 -0.11846,0.0912 -0.16957,0.13389 a 0.02077313,0.02077313 0 0 1 -5e-4,3.4e-4 c 0,-4e-5 -6.3e-4,5.2e-4 -0.001,0.001 l -4.2e-4,2.5e-4 c -0.0509,0.0426 -0.0957,0.0828 -0.13258,0.11943 a 0.02077313,0.02077313 0 0 1 -0.001,0.001 0.02077313,0.02077313 0 0 1 -4.9e-4,4.1e-4 c 3e-5,4e-5 0,1.3e-4 0,1.7e-4 a 0.02077313,0.02077313 0 0 0 0,2e-5 0.02077313,0.02077313 0 0 0 0,2e-5 0.02077313,0.02077313 0 0 0 0,2e-5 0.02077313,0.02077313 0 0 0 0,2e-5 c -0.0218,0.022 -0.0414,0.043 -0.059,0.063 -0.0176,0.02 -0.0331,0.0391 -0.0465,0.0572 -0.0137,0.0185 -0.0254,0.036 -0.0348,0.0524 a 0.02077313,0.02077313 0 0 1 -4.2e-4,8e-5 0.02077313,0.02077313 0 0 1 0,8e-5 0.02077313,0.02077313 0 0 1 0,9e-5 0.02077313,0.02077313 0 0 1 0,8e-5 0.02077313,0.02077313 0 0 1 0,8e-5 c -0.009,0.0161 -0.0164,0.0311 -0.0216,0.0452 0,4e-5 2e-5,1.3e-4 0,1.7e-4 a 0.02077313,0.02077313 0 0 1 0,4e-5 0.02077313,0.02077313 0 0 1 0,4e-5 0.02077313,0.02077313 0 0 1 0,4e-5 0.02077313,0.02077313 0 0 1 0,4e-5 c -0.005,0.0141 -0.008,0.0271 -0.01,0.0392 -0.001,0.0121 -0.001,0.0232 7.4e-4,0.0335 0.002,0.0103 0.005,0.02 0.0106,0.0294 0.005,0.009 0.0119,0.0185 0.0208,0.0273 a 0.02077313,0.02077313 0 0 1 4.2e-4,2.4e-4 c 0.0117,0.0121 0.0226,0.0217 0.0334,0.0292 0.005,0.003 0.009,0.006 0.014,0.009 a 0.02077313,0.02077313 0 0 0 0,2e-5 0.02077313,0.02077313 0 0 0 0,2e-5 0.02077313,0.02077313 0 0 0 0,2e-5 0.02077313,0.02077313 0 0 0 0,2e-5 c 0.002,0.001 -7.5e-4,0.004 7.4e-4,0.006 0.003,-5e-5 0.006,-0.003 0.01,-10e-4 0.003,10e-4 0.006,0.003 0.009,0.004 0.0117,0.004 0.0244,0.007 0.0393,0.009 0.015,0.002 0.0323,0.003 0.0525,0.003 0.0304,0 0.0555,-0.002 0.0771,-0.005 0.0108,-0.002 0.0207,-0.004 0.0301,-0.007 0.009,-0.003 0.0182,-0.007 0.0269,-0.0111 0.009,-0.004 0.0171,-0.01 0.0257,-0.0159 0.009,-0.006 0.0173,-0.0134 0.0263,-0.0218 0.0181,-0.0167 0.0376,-0.038 0.0598,-0.0649 a 0.02077313,0.02077313 0 0 1 0,-3.3e-4 c 0.0203,-0.0249 0.0416,-0.0497 0.0638,-0.0743 0.0222,-0.0246 0.0454,-0.0489 0.0694,-0.0731 a 0.02077313,0.02077313 0 0 1 0,-1.6e-4 c 0.024,-0.0241 0.0489,-0.048 0.0746,-0.0716 0.0257,-0.0236 0.0523,-0.047 0.0796,-0.0701 a 0.02077313,0.02077313 0 0 1 0,-5.8e-4 c 0.0273,-0.023 0.0553,-0.0458 0.0841,-0.0682 0.0288,-0.0225 0.0583,-0.0446 0.0885,-0.0665 0.003,-0.002 0.007,-0.004 0.0105,-0.005 l -0.009,0.004 c 0.0605,-0.0437 0.12371,-0.0859 0.18922,-0.12675 v 2.5e-4 c 10e-4,-7.9e-4 10e-4,-0.002 0.003,-0.002 0.0643,-0.04 0.13086,-0.0784 0.1992,-0.11513 4.2e-4,-2.9e-4 5.8e-4,-4.3e-4 8.3e-4,-6e-4 l -8.3e-4,2e-5 c 4.2e-4,-8e-5 4.2e-4,-2.9e-4 4.2e-4,-3.3e-4 4.1e-4,-4e-5 4.1e-4,-1.2e-4 4.1e-4,-1.7e-4 0,-4e-5 4.2e-4,-2.4e-4 4.2e-4,-2.4e-4 0,-5e-5 4.1e-4,-2.5e-4 4.1e-4,-2.5e-4 0,0 5e-4,-2.5e-4 9.2e-4,-4.3e-4 5e-4,-2.5e-4 7.4e-4,-3.3e-4 10e-4,-5.6e-4 -5e-4,2.5e-4 -9.5e-4,4.8e-4 -0.002,8.2e-4 v 8e-5 c -1e-5,0 2e-5,8e-5 0,8e-5 v 9e-5 c -4.1e-4,2.4e-4 -4.1e-4,3.3e-4 -8.7e-4,6.4e-4 0,1.2e-4 -4.1e-4,1.2e-4 -4.1e-4,2.5e-4 0,2e-5 -4e-5,2e-5 0,4e-5 0,1.2e-4 -4.2e-4,1.7e-4 -4.2e-4,2.5e-4 -1e-5,2e-5 0,4e-5 0,8e-5 h 4.2e-4 c 0,-3e-5 0,-4e-5 0,-8e-5 v 8e-5 0 c 0,9e-5 -4.2e-4,1.3e-4 -4.2e-4,2.5e-4 v -2.1e-4 c 0,9e-5 -4.1e-4,2.1e-4 -4.1e-4,3.4e-4 0,1.2e-4 -4.2e-4,1.6e-4 -4.2e-4,3.3e-4 0,8e-5 -4.2e-4,3.3e-4 -4.2e-4,3.3e-4 0,0 0,8e-5 -4.1e-4,1.7e-4 0,8e-5 0.001,9.6e-4 0.001,0.001 l -0.001,0.002 c 5.8e-4,-2.9e-4 0.001,-6.8e-4 0.002,-9.7e-4 0,1.3e-4 4.2e-4,3.4e-4 4.2e-4,4.8e-4 v 1.6e-4 9e-5 l -4.2e-4,3.3e-4 -8.7e-4,0.002 c 0,0 1e-5,-8e-5 0,-8e-5 l -0.002,0.003 a 0.02077313,0.02077313 0 0 0 0,2e-5 0.02077313,0.02077313 0 0 0 0,2e-5 0.02077313,0.02077313 0 0 0 0,3e-5 0.02077313,0.02077313 0 0 1 4.1e-4,-3.8e-4 l -4.1e-4,4.7e-4 a 0.02077313,0.02077313 0 0 1 4.1e-4,1.7e-4 0.02077313,0.02077313 0 0 1 0.001,-0.002 0.02077313,0.02077313 0 0 1 5e-4,-5.5e-4 c 0,0 1e-5,-9e-5 0,-9e-5 a 0.02077313,0.02077313 0 0 1 0.001,-0.002 l 4.1e-4,4.1e-4 a 0.02077313,0.02077313 0 0 1 4.2e-4,-3.3e-4 c 4.5e-4,5e-4 8.3e-4,8.9e-4 0.001,0.002 a 0.02077313,0.02077313 0 0 1 4.2e-4,-4.2e-4 c 4.1e-4,5.6e-4 9.1e-4,0.001 0.002,0.002 4.6e-4,6.3e-4 5.9e-4,8.2e-4 0.001,0.002 0.003,0.003 0.005,0.005 0.006,0.006 v -0.003 c -9.1e-4,-0.003 -0.002,-0.006 -0.003,-0.0103 a 0.02077313,0.02077313 0 0 1 0.003,8e-5 v -0.002 c -0.001,-8e-5 -0.002,-2.5e-4 -0.003,-8e-5 -4.2e-4,0 -4.2e-4,8e-5 -4.2e-4,8e-5 0,-8e-5 3e-5,-1.6e-4 0,-2.5e-4 h -4.1e-4 c -0.001,2.5e-4 -0.003,8.3e-4 -0.004,0.001 a 0.02077313,0.02077313 0 0 1 6.6e-4,-7.3e-4 c 0.001,-5.7e-4 0.002,-10e-4 0.003,-0.002 0,-3.8e-4 -4.6e-4,-0.002 -5e-4,-0.002 a 0.02077313,0.02077313 0 0 1 5.8e-4,-7.3e-4 c -4.1e-4,4e-5 -7.4e-4,2.1e-4 -7.4e-4,2.5e-4 v -4.2e-4 c 0,0 -0.001,4.4e-4 -0.002,7.3e-4 0.0685,-0.0367 0.13888,-0.0716 0.21073,-0.10459 4.1e-4,-1.2e-4 4.1e-4,-2.9e-4 7.8e-4,-4.1e-4 0,1.2e-4 -4.1e-4,1.2e-4 -4.1e-4,2.5e-4 4.1e-4,-1.7e-4 10e-4,-4.4e-4 0.002,-7.3e-4 a 0.02077313,0.02077313 0 0 1 4.1e-4,1.6e-4 0.02077313,0.02077313 0 0 1 0.004,-0.002 l -0.002,4.1e-4 c -4.1e-4,4e-5 -4.1e-4,1.3e-4 -4.1e-4,1.7e-4 l -4.2e-4,8e-5 c 7.5e-4,-3.3e-4 0.002,-6.3e-4 0.002,-9.7e-4 0.0722,-0.033 0.14575,-0.0642 0.22053,-0.0931 5.4e-4,-2.1e-4 5.8e-4,-2.1e-4 0.001,-3.3e-4 2e-5,4e-5 0,0 0,8e-5 4.2e-4,-2e-4 8.7e-4,-3.3e-4 0.001,-4.9e-4 l 5e-4,-1.7e-4 c 4.1e-4,-4e-5 4.1e-4,-4e-5 4.1e-4,-8e-5 4.2e-4,-8e-5 4.2e-4,-1.7e-4 7.5e-4,-2.5e-4 l -5e-4,8e-5 a 0.02077313,0.02077313 0 0 1 0.001,-4.9e-4 c 0.0749,-0.0288 0.15104,-0.0554 0.22783,-0.0797 0.002,-7e-4 0.003,-0.001 4.2e-4,9e-5 a 0.02077313,0.02077313 0 0 1 0.001,-5.8e-4 0.02077313,0.02077313 0 0 1 0.001,-5e-4 c 4.2e-4,-8e-5 5.4e-4,-8e-5 9.6e-4,-1.6e-4 a 0.02077313,0.02077313 0 0 1 0,-2.5e-4 c 0.0228,-0.007 0.0467,-0.0138 0.0724,-0.02 0.0258,-0.006 0.0534,-0.0119 0.0835,-0.0173 l -0.004,0.001 c 0.001,-4.4e-4 0.002,-2.9e-4 0.003,-6.5e-4 0,2e-5 0.001,-6.1e-4 0.001,-5.7e-4 a 0.02077313,0.02077313 0 0 1 6.7e-4,1.6e-4 c 4.1e-4,-1.6e-4 0.001,-3.3e-4 0.002,-4.1e-4 a 0.02077313,0.02077313 0 0 1 5e-4,-6.7e-4 c 0.0303,-0.005 0.0632,-0.0102 0.0994,-0.0148 0.0362,-0.005 0.0756,-0.009 0.11897,-0.0129 a 0.02077313,0.02077313 0 0 1 0.002,-8e-5 c 0.001,0 4.2e-4,8e-5 0,8e-5 a 0.02077313,0.02077313 0 0 1 0.001,-8e-5 c 8.3e-4,0 4.1e-4,8e-5 4.1e-4,8e-5 0.0864,-0.008 0.1889,-0.0148 0.31223,-0.0213 a 0.02077313,0.02077313 0 0 1 10e-4,-9e-5 c -0.003,0 -4.1e-4,-4.1e-4 0.004,-4.2e-4 0.12663,-0.007 0.27537,-0.0128 0.45242,-0.019 a 0.02077313,0.02077313 0 0 1 7.1e-4,0 h 0.005 c 0.12105,-0.004 0.24918,-0.007 0.37941,-0.007 a 0.02077313,0.02077313 0 0 1 5.9e-4,0 c 0.001,3e-5 0.003,10e-6 0.005,0 0.002,-1e-5 0.005,10e-6 0.007,0 0.12957,-5.8e-4 0.26077,4.7e-4 0.38874,0.003 h 7.8e-4 c 0.002,-3e-5 0.004,-4e-5 0.007,0 0.002,-1e-5 0.003,-4e-5 0.006,0 0.12828,0.003 0.253,0.007 0.36886,0.0131 a 0.02077313,0.02077313 0 0 1 8.7e-4,8e-5 c 0.002,1.3e-4 0.003,5.3e-4 0.005,9.9e-4 l -0.002,-4.9e-4 c -0.002,-5e-4 -10e-4,-1.7e-4 7.9e-4,-1.7e-4 0.002,0 0.004,3.8e-4 0.006,9.9e-4 v -8e-5 c -8.7e-4,-2.5e-4 -0.003,-4.3e-4 -0.002,-4.3e-4 a 0.02077313,0.02077313 0 0 1 0.001,8e-5 c 0.11522,0.006 0.22125,0.0135 0.31342,0.0223 4.2e-4,4e-5 4.6e-4,4e-5 8.8e-4,8e-5 l 10e-4,9e-5 c 0.002,1.2e-4 0.003,2.9e-4 0.004,4.2e-4 8.7e-4,1.3e-4 0.001,-8e-5 -0.002,-8e-5 4.2e-4,0 5e-4,2.1e-4 9.1e-4,2.5e-4 0,-1e-5 5.9e-4,0 5.9e-4,0 0,0 0.001,1.2e-4 0.002,1.7e-4 4.2e-4,4e-5 7.1e-4,1.2e-4 7.1e-4,8e-5 0.047,0.004 0.10089,0.012 0.16163,0.0226 7.9e-4,1.3e-4 0.001,2.9e-4 0.002,4.2e-4 a 0.02077313,0.02077313 0 0 1 0.001,2.5e-4 c 4.2e-4,4e-5 7.9e-4,1.2e-4 7.9e-4,1.6e-4 7.5e-4,1.7e-4 0.001,2.5e-4 0.002,3.3e-4 0,0 -7.1e-4,-8e-5 -7.1e-4,-8e-5 0.001,1.7e-4 0.003,4.2e-4 0.004,8.2e-4 l -0.002,-5.8e-4 c 0.0613,0.0108 0.12979,0.0248 0.20568,0.0419 l 5e-4,8e-5 c 4.1e-4,5e-5 4.1e-4,1.3e-4 6.6e-4,1.7e-4 0.001,2.5e-4 0.002,3.3e-4 0.001,2.5e-4 a 0.02077313,0.02077313 0 0 1 0.001,2.5e-4 c -4.1e-4,-4e-5 0.002,3.7e-4 9.2e-4,1.6e-4 a 0.02077313,0.02077313 0 0 1 4.1e-4,2.5e-4 c 7.1e-4,1.7e-4 0.001,2.1e-4 0.002,4.2e-4 l -10e-4,-4.2e-4 c 0.0783,0.0177 0.16451,0.0386 0.25901,0.0629 0.0945,0.0243 0.19728,0.0519 0.30872,0.0828 a 0.02077313,0.02077313 0 0 1 4.2e-4,3.3e-4 0.02077313,0.02077313 0 0 1 9.5e-4,1.6e-4 c 4.2e-4,9e-5 0.002,5.3e-4 0.005,0.001 1e-5,0 0,9e-5 0,9e-5 0.13497,0.0377 0.26573,0.0751 0.39301,0.11229 0.12728,0.0372 0.25107,0.0743 0.37212,0.11157 0.002,6.1e-4 0.004,10e-4 0.006,0.002 v 8e-5 c 0.002,7.4e-4 0.004,0.001 0.006,0.002 a 0.02077313,0.02077313 0 0 0 0,2e-5 0.02077313,0.02077313 0 0 0 0,2e-5 0.02077313,0.02077313 0 0 0 0,2e-5 0.02077313,0.02077313 0 0 0 0,2e-5 c 0.12076,0.0372 0.23883,0.0745 0.3549,0.11221 0.11608,0.0377 0.23017,0.0758 0.34297,0.11449 a 0.02077313,0.02077313 0 0 0 0,2e-5 0.02077313,0.02077313 0 0 0 0,2e-5 0.02077313,0.02077313 0 0 0 0,3e-5 c 9.1e-4,3.3e-4 0.003,8.4e-4 0.005,0.002 l 4.2e-4,8e-5 c 0.002,7.4e-4 0.004,0.001 0.005,0.002 v 8e-5 c 0.1131,0.0389 0.22498,0.0783 0.33635,0.1187 0.11137,0.0404 0.22223,0.0816 0.33328,0.12397 5.4e-4,2.1e-4 0.002,6.3e-4 0.003,10e-4 a 0.02077313,0.02077313 0 0 0 0,2e-5 0.02077313,0.02077313 0 0 0 0,2e-5 0.02077313,0.02077313 0 0 0 0,3e-5 c 0.001,5.1e-4 0.002,8.1e-4 0.002,9e-4 a 0.02077313,0.02077313 0 0 1 0.003,0.004 l -0.003,-0.004 c 0.11095,0.0424 0.22215,0.0859 0.33431,0.13081 0.11217,0.0449 0.22529,0.0912 0.34009,0.13904 a 0.02077313,0.02077313 0 0 1 4.2e-4,8e-5 c 0.001,4.6e-4 0.003,0.001 0.005,0.002 l 4.2e-4,8e-5 c 0.12443,0.0512 0.25311,0.10337 0.35919,0.14549 0.10609,0.0421 0.18959,0.0742 0.22369,0.0854 a 0.02077313,0.02077313 0 0 1 4.2e-4,9e-5 c 0.0482,0.0163 0.0951,0.0303 0.14199,0.0419 0.0469,0.0116 0.0937,0.0208 0.14175,0.0276 0.048,0.007 0.0972,0.0112 0.1487,0.0131 0.0515,0.002 0.10533,0.002 0.16277,-0.001 0.0574,-0.003 0.11845,-0.009 0.18419,-0.0169 0.0657,-0.008 0.13619,-0.0189 0.21248,-0.0324 0.0763,-0.0134 0.15848,-0.0296 0.24765,-0.0484 0.0892,-0.0188 0.18535,-0.0404 0.28964,-0.0647 0.10262,-0.0239 0.21172,-0.0477 0.32609,-0.0712 0.11399,-0.0234 0.23326,-0.0465 0.35645,-0.0693 l -5e-4,1.6e-4 c 10e-4,-2.9e-4 0.002,-5.2e-4 0.003,-6.4e-4 0,-4e-5 4.2e-4,-8e-5 4.2e-4,-8e-5 4.2e-4,-5e-5 4.2e-4,-9e-5 4.2e-4,-9e-5 a 0.02077313,0.02077313 0 0 1 0,-1.6e-4 c 0.1229,-0.0227 0.24976,-0.0448 0.37933,-0.0664 0.12957,-0.0216 0.26186,-0.0425 0.39569,-0.0626 4.1e-4,0 4.1e-4,-9e-5 4.1e-4,-9e-5 a 0.02077313,0.02077313 0 0 1 0.001,-1.6e-4 c 8.3e-4,-9e-5 0.002,-1e-5 0.002,0 0,0 4.2e-4,0 4.2e-4,0 10e-4,-4e-5 0.004,-9.9e-4 0.004,-9.9e-4 l -0.003,2.5e-4 c 0.1334,-0.02 0.26828,-0.0393 0.40344,-0.0576 0.13516,-0.0182 0.2706,-0.0355 0.40509,-0.0516 0.003,-4.2e-4 0.005,-7.2e-4 0.003,-1.7e-4 l -0.001,3.4e-4 c 0.001,-4.7e-4 0.003,-7.2e-4 0.005,-8.9e-4 a 0.02077313,0.02077313 0 0 1 8.7e-4,-8e-5 c -0.001,4e-5 0.001,-1.6e-4 0.003,-3.3e-4 0.13461,-0.016 0.26828,-0.0309 0.39975,-0.0444 0.13147,-0.0135 0.26076,-0.0256 0.38663,-0.0362 a 0.02077313,0.02077313 0 0 1 0.002,-8e-5 c 0.001,0 0.002,-8e-5 7.9e-4,0 a 0.02077313,0.02077313 0 0 1 0.001,0 h 0.001 c 0.0735,-0.006 0.16858,-0.0113 0.27352,-0.0154 l -0.004,5.9e-4 c 0.004,-9.5e-4 0.007,-9.5e-4 0.008,-9.7e-4 0.10816,-0.004 0.2266,-0.007 0.342,-0.009 0.11499,-0.002 0.22695,-0.002 0.32324,-5.8e-4 h 9.5e-4 c 0.001,-1e-5 0.002,0 0.003,0 0.0936,0.001 0.17142,0.004 0.22305,0.009 a 0.02077313,0.02077313 0 0 1 8.3e-4,8e-5 c 0,4e-5 5.8e-4,2.1e-4 5.8e-4,2.5e-4 4.1e-4,0 4.1e-4,8e-5 4.1e-4,8e-5 4.2e-4,1e-5 4.2e-4,0 4.2e-4,0 10e-4,4e-5 0.002,2.9e-4 0.003,5e-4 4.2e-4,1e-5 4.2e-4,-2e-5 6.6e-4,0 0.0542,0.005 0.10269,0.0104 0.14972,0.0188 a 0.02077313,0.02077313 0 0 1 0.002,4.2e-4 c 4.2e-4,8e-5 4.2e-4,3.3e-4 8.3e-4,4.3e-4 0,4e-5 0,2e-5 5.8e-4,8e-5 4.2e-4,8e-5 7.1e-4,2.5e-4 10e-4,4.3e-4 -4.1e-4,-1.3e-4 -10e-4,-2.1e-4 -0.002,-3.3e-4 4.6e-4,8e-5 9.2e-4,2e-4 0.001,3.3e-4 l -0.001,-2.5e-4 c 4.1e-4,4e-5 4.1e-4,2.1e-4 4.1e-4,2.5e-4 5.4e-4,1.6e-4 0.001,1.6e-4 0.002,3.3e-4 v -1.7e-4 c 0,5e-5 4.2e-4,3e-5 4.2e-4,9e-5 0.0233,0.004 0.0463,0.009 0.0696,0.0149 0.0232,0.006 0.0467,0.0123 0.071,0.0199 a 0.02077313,0.02077313 0 0 1 0,4e-5 0.02077313,0.02077313 0 0 1 0,5e-5 0.02077313,0.02077313 0 0 1 0,4e-5 0.02077313,0.02077313 0 0 1 0,4e-5 c 0,2e-5 4.2e-4,4e-5 4.2e-4,8e-5 4.1e-4,4e-5 4.1e-4,4e-5 4.1e-4,8e-5 0,5e-5 0,5e-5 5e-4,9e-5 4.2e-4,8e-5 4.6e-4,4.1e-4 8.7e-4,4.9e-4 v 0 c 0,3e-5 4.2e-4,4e-5 4.2e-4,9e-5 0,4e-5 5e-4,1.2e-4 5e-4,1.6e-4 a 0.02077313,0.02077313 0 0 1 0,-8e-5 c 0.049,0.0155 0.10137,0.0351 0.16139,0.0601 a 0.02077313,0.02077313 0 0 1 0.004,0.006 l -0.003,-0.005 c 4.2e-4,9e-5 7.1e-4,3e-4 0.002,9.1e-4 a 0.02077313,0.02077313 0 0 1 4.2e-4,1.6e-4 c 0.002,8.2e-4 0.004,0.002 0.006,0.002 v 8e-5 c 0.0598,0.0251 0.12715,0.0555 0.20699,0.0927 a 0.02077313,0.02077313 0 0 0 0,3e-5 0.02077313,0.02077313 0 0 0 0,2e-5 0.02077313,0.02077313 0 0 0 0,2e-5 0.02077313,0.02077313 0 0 0 0,2e-5 c 8.3e-4,4.2e-4 0.002,9.2e-4 0.003,0.002 l 4.1e-4,1.7e-4 c 0.001,4.9e-4 0.002,0.001 0.004,0.002 0.10622,0.0496 0.20144,0.0962 0.28747,0.14053 a 0.02077313,0.02077313 0 0 1 4.2e-4,8e-5 c 0.001,6.1e-4 0.003,0.002 0.005,0.003 l 4.1e-4,8e-5 c 0.002,0.001 0.003,0.002 0.004,0.002 a 0.02077313,0.02077313 0 0 0 0,2e-5 0.02077313,0.02077313 0 0 0 0,2e-5 0.02077313,0.02077313 0 0 0 0,2e-5 0.02077313,0.02077313 0 0 0 0,2e-5 c 0.0427,0.0221 0.0832,0.0437 0.12148,0.0649 0.0383,0.0212 0.0746,0.042 0.10887,0.0625 a 0.02077313,0.02077313 0 0 1 4.1e-4,9e-5 c 6.2e-4,3.7e-4 0.002,0.001 0.003,0.002 0.001,6.6e-4 0.002,0.001 0.002,0.001 v 9e-5 c 0.0344,0.0207 0.0668,0.0411 0.0975,0.0614 0.0307,0.0203 0.0598,0.0404 0.0872,0.0605 a 0.02077313,0.02077313 0 0 1 7.5e-4,4.9e-4 c -0.002,-0.002 -4.2e-4,-1.7e-4 0.001,8.8e-4 5.8e-4,5e-4 -4.1e-4,-2.1e-4 5.8e-4,4.3e-4 0,0 1e-5,8e-5 0,8e-5 0,0 4.2e-4,2.9e-4 4.2e-4,3.3e-4 4.1e-4,2.5e-4 4.1e-4,-2e-5 0.002,0.001 a 0.02077313,0.02077313 0 0 1 0,4e-5 0.02077313,0.02077313 0 0 1 0,5e-5 0.02077313,0.02077313 0 0 1 0,4e-5 0.02077313,0.02077313 0 0 1 0,4e-5 c 0.027,0.0199 0.0526,0.0398 0.0769,0.0598 0.0243,0.02 0.0473,0.0402 0.0691,0.0605 a 0.02077313,0.02077313 0 0 1 5e-4,4.2e-4 c 0,1.2e-4 4.1e-4,5.2e-4 7.8e-4,8.1e-4 0.0211,0.0192 0.0393,0.0353 0.0558,0.0488 0.0165,0.0135 0.0313,0.0246 0.0456,0.0339 0.0143,0.009 0.028,0.017 0.0427,0.0239 0.0147,0.007 0.0304,0.0129 0.0485,0.0189 0.0351,0.0116 0.0677,0.0212 0.0973,0.0289 0.0296,0.008 0.0561,0.0133 0.0791,0.0169 0.023,0.004 0.0423,0.005 0.0571,0.005 0.0147,-3.8e-4 0.0249,-0.003 0.0283,-0.005 0.006,-0.003 0.009,-0.007 0.0113,-0.0117 0.002,-0.005 0.004,-0.0123 0.003,-0.0227 a 0.02077313,0.02077313 0 0 1 0,-6.6e-4 c 0,-5e-5 1e-5,-4e-5 0,-9e-5 -8.3e-4,-0.0101 -0.004,-0.023 -0.009,-0.0378 a 0.02077313,0.02077313 0 0 1 -4.1e-4,-7.3e-4 c 0.001,0.003 0,2.5e-4 -0.001,-0.003 a 0.02077313,0.02077313 0 0 1 0,-8e-5 c -0.005,-0.0123 -0.0107,-0.0253 -0.0183,-0.0396 l 4.2e-4,5.6e-4 c -6.3e-4,-0.001 9.1e-4,-0.002 5e-4,-0.004 a 0.02077313,0.02077313 0 0 1 -5e-4,-8e-5 c -0.002,-0.002 -0.003,-0.003 -0.005,-0.005 a 0.02077313,0.02077313 0 0 1 -4.1e-4,-7.3e-4 c -0.0107,-0.0191 -0.024,-0.0398 -0.0396,-0.062 -0.0156,-0.0222 -0.0336,-0.0458 -0.0539,-0.0707 a 0.02077313,0.02077313 0 0 1 -4.2e-4,-0.001 l 0.005,0.005 a 0.02077313,0.02077313 0 0 1 -0.006,-0.0104 0.02077313,0.02077313 0 0 1 0,-1.6e-4 v -2.5e-4 a 0.02077313,0.02077313 0 0 1 -0.002,-0.003 l 6.6e-4,0.002 c -4.1e-4,-8e-5 -4.1e-4,-2.5e-4 -4.1e-4,-3.3e-4 a 0.02077313,0.02077313 0 0 1 -6.7e-4,-0.002 c 0,3.7e-4 -2e-5,7.3e-4 0,0.001 4.2e-4,4.3e-4 4.2e-4,4.7e-4 4.2e-4,9e-4 0,4e-5 0,4.1e-4 0,4.1e-4 0,0 0,1.7e-4 0,1.7e-4 v 8.8e-4 c 0,0 5e-4,7e-4 5e-4,9.9e-4 1e-5,4e-5 -2e-5,1.2e-4 0,1.7e-4 5.8e-4,0.001 0.001,0.003 0.002,0.004 0,2.1e-4 4.1e-4,4.2e-4 5e-4,6.1e-4 a 0.02077313,0.02077313 0 0 1 0,-3.4e-4 l 5e-4,5e-4 4.1e-4,8.8e-4 c -4.1e-4,-3.3e-4 -6.2e-4,-7e-4 -9.1e-4,-0.001 a 0.02077313,0.02077313 0 0 0 0,1.6e-4 c 0,1e-5 -1e-5,-4.8e-4 -4.2e-4,-5.7e-4 -1e-5,-3e-5 0,-1.3e-4 0,-1.7e-4 -0.0199,-0.0242 -0.0418,-0.0496 -0.0659,-0.076 -0.0246,-0.027 -0.0514,-0.0551 -0.0803,-0.084 4.2e-4,2.5e-4 -4.1e-4,-2.9e-4 -4.1e-4,-4.1e-4 0,4e-5 -4.2e-4,-3.3e-4 -4.2e-4,-3.3e-4 -4.1e-4,-5e-5 -4.1e-4,-2.9e-4 -4.1e-4,-3.4e-4 -4.2e-4,-1.6e-4 -7.1e-4,-5.5e-4 -0.002,-0.002 -0.0522,-0.0522 -0.10722,-0.10323 -0.16414,-0.15285 -0.002,-0.001 -0.003,-0.003 -0.005,-0.004 -0.0567,-0.0492 -0.11524,-0.0969 -0.17511,-0.14274 -0.002,-0.001 -0.003,-0.002 -0.005,-0.004 -0.0597,-0.0456 -0.12056,-0.0893 -0.182,-0.13063 -0.002,-0.001 -0.004,-0.003 -0.006,-0.004 -0.0615,-0.0412 -0.12345,-0.0801 -0.18525,-0.11635 a 0.02077313,0.02077313 0 0 1 0,-8e-5 c -0.002,-0.001 -0.004,-0.002 -0.006,-0.003 a 0.02077313,0.02077313 0 0 1 0,-8e-5 c -0.0622,-0.0363 -0.1242,-0.0699 -0.18522,-0.10021 -0.002,-8.1e-4 -0.003,-0.001 -0.003,-0.001 a 0.02077313,0.02077313 0 0 1 -4.2e-4,-1.7e-4 c -0.0611,-0.0303 -0.12131,-0.0574 -0.17981,-0.0809 -10e-4,-5e-4 -0.003,-0.001 -0.005,-0.002 -0.0291,-0.0116 -0.0577,-0.0223 -0.0858,-0.0321 -0.0281,-0.01 -0.0557,-0.0186 -0.0826,-0.0264 a 0.02077313,0.02077313 0 0 1 -4.2e-4,-8e-5 c 0,-4e-5 -0.002,-4.2e-4 -0.004,-0.001 -0.027,-0.008 -0.0534,-0.0145 -0.0791,-0.0201 -0.0257,-0.006 -0.0507,-0.0103 -0.0748,-0.0138 a 0.02077313,0.02077313 0 0 1 -4.2e-4,-3.4e-4 c 0,-1e-5 -4.1e-4,1e-5 -4.1e-4,0 a 0.02077313,0.02077313 0 0 1 -4.2e-4,-8e-5 c 0,0 -0.001,-2.5e-4 -8.3e-4,-1.7e-4 0,5e-5 4.2e-4,1.7e-4 4.2e-4,1.7e-4 -0.0533,-0.007 -0.18642,-0.0279 -0.29477,-0.044 -0.0975,-0.0145 -0.1769,-0.0257 -0.24829,-0.0344 -0.0674,-0.008 -0.1276,-0.0142 -0.18856,-0.0186 -0.004,-2.9e-4 -0.007,-6.5e-4 -0.008,-6.5e-4 a 0.02077313,0.02077313 0 0 1 -0.001,0 c -0.0605,-0.004 -0.12244,-0.007 -0.19359,-0.008 -0.0769,-0.002 -0.16406,-0.002 -0.27263,-0.002 h -0.006 c -0.0692,2e-5 -0.13303,4.1e-4 -0.19319,0.001 -0.0602,0.001 -0.11659,0.003 -0.17103,0.005 l 0.003,-4.1e-4 c -0.004,8.5e-4 -0.008,8.8e-4 -0.01,8.8e-4 h 8.7e-4 c -0.055,0.002 -0.10808,0.006 -0.16111,0.0102 -0.053,0.004 -0.106,0.01 -0.16075,0.0166 a 0.02077313,0.02077313 0 0 1 -4.2e-4,8e-5 c 0.001,-1.2e-4 -0.002,6.7e-4 -0.007,6.7e-4 l 0.003,-1.7e-4 c -0.0545,0.007 -0.11096,0.0149 -0.17101,0.0245 -0.0601,0.01 -0.12374,0.0208 -0.1928,0.0336 -0.004,7.7e-4 -0.009,0.002 -0.0136,0.003 -0.13635,0.0256 -0.29419,0.058 -0.48616,0.0987 -0.005,9.9e-4 -0.007,0.001 -0.0114,0.002 -0.003,6e-4 -0.008,0.002 -0.0114,0.003 -0.20703,0.0436 -0.43546,0.0946 -0.70044,0.15594 -0.008,0.002 -0.0174,0.004 -0.0258,0.006 -0.26442,0.0613 -0.56538,0.13285 -0.91685,0.21753 -0.008,0.002 -0.0122,0.003 -0.0199,0.005 -0.16968,0.041 -0.3072,0.0733 -0.42361,0.098 -0.0582,0.0124 -0.11116,0.0228 -0.16019,0.0316 -0.049,0.009 -0.0942,0.0159 -0.13677,0.0215 -0.0426,0.006 -0.0827,0.01 -0.12151,0.0124 -0.0388,0.003 -0.0765,0.004 -0.1142,0.004 -0.0377,1.7e-4 -0.0755,-8.9e-4 -0.11473,-0.003 -0.0392,-0.002 -0.0799,-0.005 -0.12333,-0.009 -0.0811,-0.007 -0.15933,-0.0158 -0.23545,-0.0268 -0.0761,-0.011 -0.1503,-0.0243 -0.22352,-0.0402 -0.0366,-0.008 -0.073,-0.0165 -0.10923,-0.0258 -0.0362,-0.009 -0.0724,-0.0193 -0.10856,-0.03 -0.0362,-0.0108 -0.0724,-0.0223 -0.10871,-0.0346 -0.0363,-0.0123 -0.0728,-0.0255 -0.10961,-0.0394 -0.0368,-0.014 -0.0739,-0.0289 -0.11136,-0.0446 -0.0375,-0.0158 -0.0754,-0.0324 -0.1138,-0.0501 -0.0768,-0.0352 -0.15588,-0.0743 -0.23813,-0.11757 -0.0822,-0.0433 -0.16769,-0.0908 -0.25746,-0.14296 -0.0898,-0.0521 -0.18383,-0.10897 -0.28325,-0.17079 -4.1e-4,-2.1e-4 -4.1e-4,-4.2e-4 -8.3e-4,-5.8e-4 0,-9e-5 -5e-4,-2.5e-4 -5e-4,-3.3e-4 -0.0575,-0.0361 -0.12172,-0.0739 -0.17964,-0.1062 a 0.02077313,0.02077313 0 0 1 0,-9e-5 c -0.003,-0.001 -0.004,-0.002 -0.006,-0.003 a 0.02077313,0.02077313 0 0 1 -4.1e-4,-1.7e-4 c -0.0573,-0.0318 -0.10793,-0.0579 -0.13664,-0.0703 a 0.02077313,0.02077313 0 0 1 0,-2.5e-4 c 0,-4e-5 -4.2e-4,-4e-5 -4.2e-4,-8e-5 -4.1e-4,-2.1e-4 -7.5e-4,-2.1e-4 -0.001,-4.3e-4 0,-8e-5 -4.2e-4,-2.9e-4 -4.2e-4,-3.3e-4 -4.1e-4,-4e-5 -4.1e-4,-4e-5 -4.1e-4,-9e-5 -4.2e-4,-8e-5 -6.7e-4,0 -6.7e-4,-8e-5 -0.0321,-0.0135 -0.068,-0.0275 -0.10738,-0.0418 -0.0393,-0.0143 -0.082,-0.029 -0.1276,-0.0439 -0.002,-8e-4 -0.005,-0.002 -0.007,-0.002 -0.0906,-0.0294 -0.19212,-0.0595 -0.3007,-0.0892 -0.004,-10e-4 -0.008,-0.002 -0.0114,-0.003 -0.10859,-0.0295 -0.2239,-0.0586 -0.34215,-0.0861 v 8e-5 c -0.004,-9.5e-4 -0.008,-0.002 -0.0119,-0.003 -0.1186,-0.0274 -0.23996,-0.0532 -0.36016,-0.0763 a 0.02077313,0.02077313 0 0 1 0,-9e-5 c -0.002,-4.4e-4 -0.004,-8.5e-4 -0.006,-0.001 -0.0764,-0.0147 -0.15078,-0.0298 -0.20933,-0.0421 -0.0583,-0.0122 -0.0989,-0.0212 -0.11449,-0.0258 l 0.006,7.9e-4 c -0.002,0 -6.6e-4,-3e-5 -0.002,-4.1e-4 -0.002,-9e-5 -0.004,-3.3e-4 -0.005,-8.8e-4 a 0.02077313,0.02077313 0 0 1 0,-9e-5 c -0.0153,-0.005 -0.0398,-0.0105 -0.0715,-0.0171 -0.0317,-0.007 -0.0707,-0.0141 -0.115,-0.022 -0.004,-6.4e-4 -0.008,-10e-4 -0.0117,-0.002 -0.0885,-0.0156 -0.19683,-0.0329 -0.31499,-0.0504 -0.12777,-0.0189 -0.26518,-0.0378 -0.40015,-0.0548 -0.12613,-0.016 -0.24899,-0.0301 -0.35724,-0.0408 a 0.02077313,0.02077313 0 0 1 -4.2e-4,-9e-5 c -0.004,-4.1e-4 -0.007,-5.5e-4 -0.003,-5.5e-4 -0.005,0 -0.008,-4.2e-4 -0.005,-4.2e-4 l 0.002,-8e-5 c -0.001,1.6e-4 -0.003,1.6e-4 -0.005,0 -0.12784,-0.0127 -0.26162,-0.0236 -0.39633,-0.0324 -0.005,-3e-4 -0.0101,-5.4e-4 -0.0158,-9.9e-4 -0.13426,-0.009 -0.26912,-0.0151 -0.3996,-0.0194 a 0.02077313,0.02077313 0 0 1 -0.002,-1.6e-4 c -0.002,-2.1e-4 -0.004,-2.5e-4 -0.007,-2.5e-4 a 0.02077313,0.02077313 0 0 1 -6.7e-4,0 c -0.13147,-0.004 -0.25823,-0.006 -0.3751,-0.006 -0.003,1e-5 -0.005,-1e-5 -0.008,0 z"
               id="path98897" />
            <path
               id="path107507"
               style="color:#000000;fill:#c6b3a5;fill-opacity:1;fill-rule:evenodd;stroke:none;stroke-width:0.0415421;stroke-linecap:round;stroke-linejoin:round;-inkscape-stroke:none"
               d="m 174.2581,68.767896 c -0.12951,2.8e-5 -0.25684,0.0027 -0.37724,0.0067 h -0.005 a 0.02077313,0.02077313 0 0 1 -5.2e-4,0 c -0.17704,0.0062 -0.32553,0.01212 -0.45216,0.01912 -0.004,1e-5 -0.007,5.16e-4 -0.004,5.16e-4 a 0.02077313,0.02077313 0 0 0 -5.1e-4,0 c -0.12333,0.0065 -0.22574,0.01319 -0.31213,0.02119 h -5.2e-4 a 0.02077313,0.02077313 0 0 0 -0.001,0 0.02077313,0.02077313 0 0 0 -0.002,0 c -0.0434,0.0039 -0.0827,0.0079 -0.11885,0.01292 -0.0362,0.0046 -0.0689,0.01 -0.0992,0.01499 a 0.02077313,0.02077313 0 0 1 -5.2e-4,5.17e-4 c -10e-4,8e-5 -0.002,3.57e-4 -0.002,5.17e-4 a 0.02077313,0.02077313 0 0 0 -0.001,0 l -5.2e-4,5.16e-4 c -0.001,3.6e-4 -0.002,7.7e-5 -0.003,5.17e-4 -0.0286,0.0052 -0.0549,0.01028 -0.0796,0.01602 -0.0257,0.0062 -0.0495,0.01315 -0.0724,0.02015 a 0.02077313,0.02077313 0 0 1 0,5.16e-4 c -4.2e-4,8e-5 -6.4e-4,-8e-5 -0.001,0 a 0.02077313,0.02077313 0 0 0 -0.001,5.17e-4 0.02077313,0.02077313 0 0 0 -0.001,5.17e-4 h -5.1e-4 c -0.0768,0.0243 -0.153,0.05078 -0.2279,0.07958 a 0.02077313,0.02077313 0 0 1 -5.1e-4,5.16e-4 h -5.2e-4 l -5.2e-4,5.17e-4 h -5.1e-4 c -1.3e-4,1.6e-4 -6.5e-4,3.17e-4 -0.001,5.17e-4 -4.2e-4,1.2e-4 -5.2e-4,-2.1e-4 -10e-4,0 -0.0748,0.0289 -0.14794,0.06002 -0.22014,0.09302 0,2.72e-4 -9.1e-4,8.1e-4 -0.002,10e-4 l 0.002,-5.17e-4 a 0.02077313,0.02077313 0 0 0 -0.004,0.0021 c -7.7e-4,2.22e-4 -0.001,3.54e-4 -0.002,5.17e-4 h -5.1e-4 -5.2e-4 c -0.0711,0.03266 -0.14091,0.06757 -0.20877,0.10387 v 5.17e-4 c 0,-4e-5 6.5e-4,4e-5 0.001,0 a 0.02077313,0.02077313 0 0 0 -0.001,5.16e-4 c 4e-5,0 5.1e-4,0.0017 5.1e-4,0.0021 -10e-4,0.001 -0.002,0.0015 -0.003,0.0021 0.001,-2.47e-4 0.002,-3.32e-4 0.003,-5.16e-4 h 5.2e-4 v 5.16e-4 h 5.2e-4 c 0.001,-1.7e-4 0.002,-8e-5 0.003,0 v 0.0021 a 0.02077313,0.02077313 0 0 0 -0.003,0 c 0.001,0.0043 0.002,0.0068 0.003,0.0098 v 0.0031 l -0.006,-0.0057 c -4.1e-4,-0.0012 -6.2e-4,-0.0014 -0.001,-0.0021 -10e-4,-10e-4 -0.002,-0.0015 -0.002,-0.0021 a 0.02077313,0.02077313 0 0 1 -5.2e-4,5.17e-4 c -1.7e-4,-0.0011 -6.1e-4,-0.0016 -0.001,-0.0021 v -5.17e-4 -5.17e-4 -5.17e-4 -5.16e-4 c -0.001,2.9e-4 -0.001,7.77e-4 -0.002,10e-4 l 0.001,-0.0021 c 0,-4e-5 -0.001,-4.37e-4 -0.001,-5.17e-4 -0.0678,0.03646 -0.13362,0.07401 -0.1974,0.113689 -0.002,0 -0.002,0.0013 -0.003,0.0021 -0.005,0.0031 -0.01,0.0062 -0.0145,0.0093 -0.0525,0.0336 -0.10399,0.06794 -0.15297,0.103353 a 0.02077313,0.02077313 0 0 1 -5.1e-4,5.17e-4 c -0.0588,0.0425 -0.11489,0.086 -0.16795,0.130741 l -5.2e-4,5.17e-4 -5.2e-4,5.17e-4 a 0.02077313,0.02077313 0 0 1 -5.1e-4,0.001 c -0.0269,0.0228 -0.0531,0.04553 -0.0786,0.06873 -0.0253,0.0232 -0.0494,0.04668 -0.0729,0.07028 -0.0236,0.0237 -0.0465,0.04783 -0.0682,0.07183 -0.0214,0.0236 -0.042,0.04741 -0.0615,0.07131 -4.2e-4,3.8e-4 -2.3e-4,8.41e-4 -5.2e-4,0.001 a 0.02077313,0.02077313 0 0 1 0,5.17e-4 c -0.023,0.0278 -0.0437,0.05045 -0.0641,0.06925 -0.0102,0.009 -0.0207,0.01782 -0.031,0.02532 -0.006,0.0041 -0.0124,0.0075 -0.0186,0.01137 -0.001,10e-4 -0.003,0.0027 -0.004,0.0036 -0.009,0.0059 -0.0168,0.01202 -0.0258,0.01602 -0.009,0.0041 -0.0179,0.0079 -0.0269,0.01085 -0.009,0.003 -0.0192,0.0052 -0.03,0.0072 -0.0216,0.003 -0.0466,0.0046 -0.077,0.0046 -0.0202,0 -0.0377,-5.67e-4 -0.0527,-0.0026 -0.0149,-0.002 -0.0276,-0.0053 -0.0393,-0.0093 -0.003,-10e-4 -0.006,-0.0031 -0.009,-0.0041 -0.004,-0.002 -0.007,0.001 -0.0103,0.001 -10e-4,-0.0016 -10e-5,-0.0033 -5.1e-4,-0.0047 l -0.72141,0.626835 h 17.28577 c -0.008,-0.002 -0.0149,-0.0028 -0.0238,-0.0052 -0.0296,-0.0077 -0.062,-0.01682 -0.0971,-0.02842 -0.0181,-0.006 -0.0339,-0.01212 -0.0486,-0.01912 -0.0147,-0.0069 -0.0286,-0.01477 -0.0429,-0.02377 -0.0143,-0.0093 -0.029,-0.02061 -0.0455,-0.03411 -0.002,-0.0019 -0.005,-0.0047 -0.008,-0.0067 -0.006,-0.0048 -0.0121,-0.0086 -0.0186,-0.01395 -0.0174,-0.0143 -0.036,-0.03104 -0.0574,-0.05064 a 0.02077313,0.02077313 0 0 1 0,-5.16e-4 c 0.001,0.0014 -4.6e-4,6.95e-4 -0.002,-5.17e-4 l -5.2e-4,-5.17e-4 c -0.021,-0.01967 -0.0432,-0.039 -0.0667,-0.05839 l -5.2e-4,-5.17e-4 c -0.0157,-0.0129 -0.0327,-0.02591 -0.0496,-0.03876 -0.002,-10e-4 -0.002,-8.17e-4 -0.002,-10e-4 h -5.1e-4 v -5.17e-4 h -5.2e-4 l -0.001,-0.001 a 0.02077313,0.02077313 0 0 1 -5.2e-4,-5.17e-4 c -0.0274,-0.0201 -0.0566,-0.04016 -0.0873,-0.06046 -0.0307,-0.0203 -0.0628,-0.04081 -0.0972,-0.0615 0,0 -0.001,-4.07e-4 -0.002,-10e-4 -0.001,-0.001 -0.002,-0.0017 -0.003,-0.0021 a 0.02077313,0.02077313 0 0 1 -5.1e-4,0 c -0.0343,-0.0205 -0.0707,-0.04133 -0.10904,-0.06253 -0.0383,-0.0212 -0.0787,-0.04301 -0.12144,-0.06511 -0.001,0 -0.002,-0.0011 -0.004,-0.0021 h -5.2e-4 c -0.002,-0.001 -0.004,-0.0025 -0.005,-0.0031 a 0.02077313,0.02077313 0 0 1 -5.1e-4,0 c -0.086,-0.04433 -0.18111,-0.09096 -0.28733,-0.14056 -0.002,-10e-4 -0.003,-0.0016 -0.004,-0.0021 h -0.001 c -0.001,-0.0011 -0.002,-0.0016 -0.003,-0.0021 -0.0798,-0.0372 -0.14742,-0.0674 -0.20722,-0.0925 -0.002,0 -0.004,-0.0012 -0.006,-0.0021 a 0.02077313,0.02077313 0 0 1 0,-5.17e-4 c -0.001,-6.1e-4 -0.002,-4.27e-4 -0.002,-5.17e-4 a 0.02077313,0.02077313 0 0 0 -0.001,-10e-4 c -0.06,-0.025 -0.11224,-0.04496 -0.16124,-0.06046 h -5.1e-4 -5.2e-4 c -4.1e-4,-8e-5 -6.4e-4,-4.36e-4 -0.001,-5.16e-4 h -5.2e-4 -5.2e-4 a 0.02077313,0.02077313 0 0 1 0,-5.17e-4 c -0.0243,-0.0076 -0.0481,-0.01364 -0.0713,-0.01964 -0.0233,-0.0059 -0.0465,-0.01099 -0.0698,-0.01499 -7.7e-4,-1.3e-4 -0.001,-4.38e-4 -0.002,-5.17e-4 h -5.2e-4 v -5.17e-4 c -4.1e-4,-10e-5 -6.4e-4,8e-5 -0.001,0 a 0.02077313,0.02077313 0 0 0 -0.002,-5.17e-4 c -0.047,-0.0084 -0.0951,-0.01412 -0.14935,-0.01912 -2.4e-4,-2e-5 -6.4e-4,10e-6 -0.001,0 -0.001,-2.1e-4 -0.002,-4.77e-4 -0.003,-5.17e-4 h -5.2e-4 -5.1e-4 -5.2e-4 a 0.02077313,0.02077313 0 0 0 -0.001,0 c -0.0516,-0.005 -0.12913,-0.0083 -0.22273,-0.0093 -10e-4,0 -0.002,-1e-5 -0.003,0 h -0.001 c -0.0963,-0.0014 -0.20851,-0.0015 -0.3235,5.17e-4 -0.1154,0.002 -0.23342,0.0053 -0.34158,0.0093 -5e-4,10e-6 -0.003,3.96e-4 -0.004,5.17e-4 -0.10494,0.0041 -0.19987,0.009 -0.27337,0.01499 h -5.2e-4 a 0.02077313,0.02077313 0 0 0 -0.001,0 c 0.001,-8e-5 -7e-5,0 -0.001,0 a 0.02077313,0.02077313 0 0 0 -0.002,0 c -0.12587,0.0106 -0.25507,0.02319 -0.38654,0.03669 -0.13147,0.0135 -0.26485,0.02792 -0.39946,0.04393 -0.002,1.7e-4 -0.004,5.57e-4 -0.003,5.17e-4 a 0.02077313,0.02077313 0 0 0 -0.001,0 c -0.002,1.34e-4 -0.003,2.15e-4 -0.004,5.17e-4 0.002,-5.5e-4 8.4e-4,9.6e-5 -0.003,5.16e-4 -0.13449,0.0161 -0.2705,0.03348 -0.40566,0.05168 -0.13411,0.01816 -0.26809,0.03701 -0.40049,0.05684 l -0.003,5.17e-4 c -4.5e-4,1.04e-4 -8e-4,5.06e-4 -0.001,5.17e-4 h -5.2e-4 c 0,-1e-5 -0.001,-9e-5 -0.002,0 a 0.02077313,0.02077313 0 0 0 -0.001,5.16e-4 c -0.13383,0.0201 -0.26627,0.04093 -0.39584,0.06253 -0.12957,0.0216 -0.25641,0.04396 -0.37931,0.06666 h -5.1e-4 -5.2e-4 c -8.4e-4,1e-4 -0.002,2.91e-4 -0.003,5.17e-4 h -5.2e-4 c -0.12301,0.02277 -0.2417,0.04588 -0.35553,0.06925 -0.11437,0.0235 -0.22346,0.04741 -0.32608,0.07131 -0.10429,0.0243 -0.2007,0.0458 -0.2899,0.0646 -0.0892,0.0188 -0.17123,0.03518 -0.24753,0.04857 -0.0763,0.0135 -0.14669,0.02456 -0.21239,0.03256 -0.0657,0.0079 -0.12709,0.01354 -0.18449,0.01654 -0.0574,0.003 -0.11128,0.003 -0.16278,0.001 -0.0515,-0.0019 -0.10083,-0.0059 -0.14883,-0.01292 -0.048,-0.0068 -0.0947,-0.01631 -0.14159,-0.02791 -0.0469,-0.0116 -0.0939,-0.02556 -0.14211,-0.04186 -0.0341,-0.0112 -0.11767,-0.04317 -0.22376,-0.08527 -0.10608,-0.04212 -0.23472,-0.09453 -0.35915,-0.145727 h -5.2e-4 c -0.002,-0.001 -0.004,-0.0016 -0.005,-0.0021 a 0.02077313,0.02077313 0 0 1 -5.1e-4,0 c -0.1148,-0.04784 -0.22786,-0.09411 -0.34003,-0.13901 -0.11216,-0.04491 -0.2234,-0.08834 -0.33435,-0.130741 0,-9e-5 -5.5e-4,-5.57e-4 -0.002,-0.001 -0.001,-3.7e-4 -0.002,-8.57e-4 -0.003,-0.001 -0.11104,-0.04237 -0.22194,-0.08362 -0.33331,-0.124024 -0.11137,-0.0404 -0.22332,-0.07944 -0.33642,-0.118339 v -5.17e-4 c -0.001,-10e-4 -0.003,-7.61e-4 -0.005,-0.0016 l -5.1e-4,-5.17e-4 c -0.002,-0.0012 -0.004,-0.0011 -0.005,-0.0015 a 0.02077313,0.02077313 0 0 0 0,-5.17e-4 c -0.1128,-0.03869 -0.22705,-0.0765 -0.34313,-0.114205 -0.11607,-0.03771 -0.23426,-0.07494 -0.35502,-0.112138 -0.002,-0.001 -0.004,-0.0013 -0.006,-0.0021 -0.002,-0.001 -0.004,-0.0015 -0.006,-0.0021 -0.12105,-0.03727 -0.24479,-0.07442 -0.37207,-0.111621 -0.12728,-0.03719 -0.25829,-0.07495 -0.39326,-0.112654 -0.003,-4.7e-4 -0.004,-9.77e-4 -0.005,-0.001 a 0.02077313,0.02077313 0 0 0 -0.001,0 0.02077313,0.02077313 0 0 1 -5.1e-4,-5.17e-4 c -0.11144,-0.0309 -0.21401,-0.05838 -0.30851,-0.08268 -0.0941,-0.0242 -0.18034,-0.04488 -0.25838,-0.06253 -0.001,-2.1e-4 -0.001,-3.46e-4 -0.002,-5.16e-4 0.001,2.1e-4 -0.001,-4e-5 -0.001,0 a 0.02077313,0.02077313 0 0 0 -10e-4,-5.17e-4 c 10e-4,8e-5 -7e-5,2.5e-4 -0.001,0 l 5.2e-4,-5.17e-4 c -0.0751,-0.01692 -0.14281,-0.03059 -0.20361,-0.04134 -8.7e-4,-3.51e-4 -0.003,-3.5e-4 -0.004,-5.17e-4 h -5.2e-4 c -5.5e-4,-6.5e-5 -0.001,-3.86e-4 -0.002,-5.16e-4 h -5.1e-4 a 0.02077313,0.02077313 0 0 0 -0.001,-5.17e-4 c -10e-4,-1.3e-4 -10e-4,1.3e-4 -0.002,0 -0.0607,-0.0106 -0.11475,-0.01874 -0.16175,-0.02274 h -5.2e-4 c -7.7e-4,-3.9e-5 -5.5e-4,-4.82e-4 -0.002,-5.17e-4 h -5.2e-4 -5.1e-4 c -4.1e-4,-4e-5 -6.5e-4,0 -0.001,0 -6.3e-4,-7.5e-5 -0.001,-4.55e-4 -0.002,-5.16e-4 h -10e-4 -5.1e-4 c -0.0919,-0.0088 -0.19785,-0.01623 -0.31265,-0.02222 v 5.16e-4 c -0.001,-4.53e-4 -0.003,-3.78e-4 -0.005,-5.16e-4 -6.2e-4,-1.41e-4 -0.001,-3.92e-4 -0.002,-5.17e-4 h -5.2e-4 c -9e-4,-2.24e-4 -0.002,-4.4e-4 -0.003,-5.17e-4 a 0.02077313,0.02077313 0 0 0 -5.1e-4,0 c -0.11586,-0.0061 -0.24019,-0.01044 -0.36846,-0.01344 -0.003,-4e-5 -0.004,-1e-5 -0.006,0 -0.003,-4e-5 -0.005,-3e-5 -0.007,0 h -0.001 c -0.12797,-0.0025 -0.25903,-0.0032 -0.3886,-0.0026 -0.002,1e-5 -0.005,-1e-5 -0.007,0 -0.002,8e-6 -0.003,9e-6 -0.004,0 z m -2.20917,0.398425 v 5.17e-4 c 0,0 6.5e-4,-3.37e-4 10e-4,-5.17e-4 -3e-4,1.25e-4 -5.7e-4,-1.6e-4 -10e-4,0 z m -0.004,0.0098 a 0.02077313,0.02077313 0 0 0 -5.1e-4,0.0016 0.02077313,0.02077313 0 0 1 -5.2e-4,-5.17e-4 z m 15.55202,1.275375 c 0.004,0.0121 0.007,0.02456 0.008,0.03566 a 0.02077313,0.02077313 0 0 1 0,5.17e-4 0.02077313,0.02077313 0 0 1 0,5.17e-4 0.02077313,0.02077313 0 0 1 0,5.17e-4 v 5.16e-4 c 7.5e-4,0.01149 -0.002,0.0217 -0.005,0.03204 v 5.17e-4 c -4.2e-4,0.002 -7.1e-4,0.0042 -0.001,0.0052 0,5e-4 -0.001,6.1e-4 -0.001,0.001 a 0.02077313,0.02077313 0 0 1 0,5.17e-4 0.02077313,0.02077313 0 0 1 0,5.16e-4 0.02077313,0.02077313 0 0 1 0,5.17e-4 0.02077313,0.02077313 0 0 1 0,5.17e-4 0.02077313,0.02077313 0 0 1 0,5.17e-4 0.02077313,0.02077313 0 0 1 0,5.16e-4 0.02077313,0.02077313 0 0 1 0,5.17e-4 0.02077313,0.02077313 0 0 1 0,5.17e-4 0.02077313,0.02077313 0 0 1 0,5.17e-4 c -0.002,0.004 -0.006,0.0058 -0.009,0.0088 v 5.16e-4 l -5.1e-4,5.17e-4 c -0.003,0.004 -0.006,0.0092 -0.0103,0.01292 -0.003,0.004 -0.007,0.0077 -0.0119,0.0098 -0.004,0.0024 -0.009,0.0032 -0.0134,0.0047 -5e-5,1.35e-4 -3e-5,3.28e-4 0,5.16e-4 h 0.23978 c -0.0337,-0.02166 -0.0671,-0.04362 -0.1018,-0.06459 -0.031,-0.0187 -0.0625,-0.03646 -0.0941,-0.05426 z" />
          </g>
        </g>
      </g>
    </g>
  </g>
</svg>
